<svg xmlns="http://www.w3.org/2000/svg" width="798.667" height="798.667" preserveAspectRatio="xMidYMid meet" version="1.0" viewBox="0 0 599 599"><metadata>Created by potrace 1.14, written by Peter Selinger 2001-2017</metadata><g fill="#000" stroke="none"><path d="M3243 5229 c-181 -26 -377 -92 -678 -226 -407 -182 -461 -205 -583 -247 -270 -92 -492 -129 -777 -129 -356 -1 -537 46 -942 243 -112 54 -203 95 -203 91 0 -19 164 -203 236 -265 226 -194 542 -347 867 -420 223 -50 315 -60 582 -60 231 0 272 3 535 37 472 61 619 69 832 46 300 -32 628 -183 628 -289 0 -49 -84 -110 -348 -252 -206 -110 -287 -164 -362 -239 -213 -213 -271 -545 -142 -829 16 -36 81 -152 145 -258 145 -241 179 -323 185 -451 5 -113 -5 -166 -64 -317 -94 -245 -95 -387 -3 -581 98 -207 329 -342 564 -331 163 9 268 72 338 205 19 37 143 318 275 623 382 884 396 915 614 1305 209 376 262 529 262 765 1 142 -17 227 -66 324 -11 21 -16 42 -11 46 4 4 201 121 437 260 l429 254 -54 18 c-142 49 -244 62 -469 63 -171 0 -233 -4 -300 -18 -108 -23 -266 -71 -337 -103 -31 -13 -57 -24 -58 -24 -2 0 -18 24 -35 53 -225 366 -640 635 -1085 702 -108 16 -312 18 -412 4z" transform="translate(0.000000,599.000000) scale(0.100000,-0.100000)"/><path d="M6 4845 c42 -301 249 -701 467 -902 293 -270 781 -437 1528 -523 369 -43 509 -86 626 -193 l42 -39 6 29 c37 164 130 322 263 444 101 93 239 180 441 277 l182 88 -88 27 c-299 92 -603 100 -1238 33 -641 -67 -932 -57 -1246 45 -131 42 -376 166 -488 246 -116 83 -317 275 -402 385 -109 138 -99 129 -93 83z" transform="translate(0.000000,599.000000) scale(0.100000,-0.100000)"/><path d="M150 4169 c0 -44 32 -171 67 -264 118 -316 410 -699 696 -913 251 -189 751 -439 1117 -560 173 -57 307 -87 500 -113 245 -31 366 -68 476 -143 21 -14 40 -24 42 -22 8 9 -65 149 -163 312 -59 97 -121 206 -137 242 -37 81 -68 201 -68 262 0 41 -5 50 -42 87 -120 116 -254 158 -638 203 -963 112 -1562 398 -1806 862 -41 79 -43 81 -44 47z" transform="translate(0.000000,599.000000) scale(0.100000,-0.100000)"/></g></svg>