<svg id="visual" viewBox="0 0 900 600" width="900" height="600" xmlns="http://www.w3.org/2000/svg" xmlns:xlink="http://www.w3.org/1999/xlink" version="1.1"><path d="M0 194L21.5 208.7C43 223.3 86 252.7 128.8 266.8C171.7 281 214.3 280 257.2 263.3C300 246.7 343 214.3 385.8 202C428.7 189.7 471.3 197.3 514.2 216.5C557 235.7 600 266.3 642.8 269C685.7 271.7 728.3 246.3 771.2 235C814 223.7 857 226.3 878.5 227.7L900 229L900 601L878.5 601C857 601 814 601 771.2 601C728.3 601 685.7 601 642.8 601C600 601 557 601 514.2 601C471.3 601 428.7 601 385.8 601C343 601 300 601 257.2 601C214.3 601 171.7 601 128.8 601C86 601 43 601 21.5 601L0 601Z" fill="#f15a24"></path><path d="M0 232L21.5 244.3C43 256.7 86 281.3 128.8 298.8C171.7 316.3 214.3 326.7 257.2 320.2C300 313.7 343 290.3 385.8 291C428.7 291.7 471.3 316.3 514.2 310.8C557 305.3 600 269.7 642.8 251.8C685.7 234 728.3 234 771.2 253.2C814 272.3 857 310.7 878.5 329.8L900 349L900 601L878.5 601C857 601 814 601 771.2 601C728.3 601 685.7 601 642.8 601C600 601 557 601 514.2 601C471.3 601 428.7 601 385.8 601C343 601 300 601 257.2 601C214.3 601 171.7 601 128.8 601C86 601 43 601 21.5 601L0 601Z" fill="#ea5126"></path><path d="M0 330L21.5 338.3C43 346.7 86 363.3 128.8 369.8C171.7 376.3 214.3 372.7 257.2 358.3C300 344 343 319 385.8 319.7C428.7 320.3 471.3 346.7 514.2 356C557 365.3 600 357.7 642.8 346.2C685.7 334.7 728.3 319.3 771.2 327C814 334.7 857 365.3 878.5 380.7L900 396L900 601L878.5 601C857 601 814 601 771.2 601C728.3 601 685.7 601 642.8 601C600 601 557 601 514.2 601C471.3 601 428.7 601 385.8 601C343 601 300 601 257.2 601C214.3 601 171.7 601 128.8 601C86 601 43 601 21.5 601L0 601Z" fill="#e24928"></path><path d="M0 361L21.5 369.8C43 378.7 86 396.3 128.8 409.7C171.7 423 214.3 432 257.2 424C300 416 343 391 385.8 379.3C428.7 367.7 471.3 369.3 514.2 379C557 388.7 600 406.3 642.8 414.5C685.7 422.7 728.3 421.3 771.2 421.7C814 422 857 424 878.5 425L900 426L900 601L878.5 601C857 601 814 601 771.2 601C728.3 601 685.7 601 642.8 601C600 601 557 601 514.2 601C471.3 601 428.7 601 385.8 601C343 601 300 601 257.2 601C214.3 601 171.7 601 128.8 601C86 601 43 601 21.5 601L0 601Z" fill="#da402a"></path><path d="M0 488L21.5 482C43 476 86 464 128.8 452.5C171.7 441 214.3 430 257.2 424C300 418 343 417 385.8 416.2C428.7 415.3 471.3 414.7 514.2 411.2C557 407.7 600 401.3 642.8 411.5C685.7 421.7 728.3 448.3 771.2 460.7C814 473 857 471 878.5 470L900 469L900 601L878.5 601C857 601 814 601 771.2 601C728.3 601 685.7 601 642.8 601C600 601 557 601 514.2 601C471.3 601 428.7 601 385.8 601C343 601 300 601 257.2 601C214.3 601 171.7 601 128.8 601C86 601 43 601 21.5 601L0 601Z" fill="#d2382b"></path><path d="M0 454L21.5 464C43 474 86 494 128.8 504.8C171.7 515.7 214.3 517.3 257.2 514C300 510.7 343 502.3 385.8 500.7C428.7 499 471.3 504 514.2 508.3C557 512.7 600 516.3 642.8 510C685.7 503.7 728.3 487.3 771.2 475.7C814 464 857 457 878.5 453.5L900 450L900 601L878.5 601C857 601 814 601 771.2 601C728.3 601 685.7 601 642.8 601C600 601 557 601 514.2 601C471.3 601 428.7 601 385.8 601C343 601 300 601 257.2 601C214.3 601 171.7 601 128.8 601C86 601 43 601 21.5 601L0 601Z" fill="#ca2f2c"></path><path d="M0 531L21.5 528.8C43 526.7 86 522.3 128.8 525.7C171.7 529 214.3 540 257.2 539.8C300 539.7 343 528.3 385.8 522C428.7 515.7 471.3 514.3 514.2 517.3C557 520.3 600 527.7 642.8 526.3C685.7 525 728.3 515 771.2 515.8C814 516.7 857 528.3 878.5 534.2L900 540L900 601L878.5 601C857 601 814 601 771.2 601C728.3 601 685.7 601 642.8 601C600 601 557 601 514.2 601C471.3 601 428.7 601 385.8 601C343 601 300 601 257.2 601C214.3 601 171.7 601 128.8 601C86 601 43 601 21.5 601L0 601Z" fill="#c1272d"></path></svg>