<svg xmlns="http://www.w3.org/2000/svg" xmlns:xlink="http://www.w3.org/1999/xlink" id="visual" width="900" height="450" version="1.1" viewBox="0 0 900 450"><rect width="900" height="450" x="0" y="0" fill="#242424"/><path fill="#c0272d" d="M0 194L30 192.3C60 190.7 120 187.3 180 185.8C240 184.3 300 184.7 360 169.7C420 154.7 480 124.3 540 124.2C600 124 660 154 720 163.8C780 173.7 840 163.3 870 158.2L900 153L900 451L870 451C840 451 780 451 720 451C660 451 600 451 540 451C480 451 420 451 360 451C300 451 240 451 180 451C120 451 60 451 30 451L0 451Z"/><path fill="#c9302d" d="M0 179L30 171.7C60 164.3 120 149.7 180 156.5C240 163.3 300 191.7 360 202.8C420 214 480 208 540 193.8C600 179.7 660 157.3 720 150.8C780 144.3 840 153.7 870 158.3L900 163L900 451L870 451C840 451 780 451 720 451C660 451 600 451 540 451C480 451 420 451 360 451C300 451 240 451 180 451C120 451 60 451 30 451L0 451Z"/><path fill="#d1382c" d="M0 279L30 285.3C60 291.7 120 304.3 180 294.5C240 284.7 300 252.3 360 239C420 225.7 480 231.3 540 246C600 260.7 660 284.3 720 295.8C780 307.3 840 306.7 870 306.3L900 306L900 451L870 451C840 451 780 451 720 451C660 451 600 451 540 451C480 451 420 451 360 451C300 451 240 451 180 451C120 451 60 451 30 451L0 451Z"/><path fill="#d9412b" d="M0 256L30 262.3C60 268.7 120 281.3 180 280.3C240 279.3 300 264.7 360 254.3C420 244 480 238 540 236.5C600 235 660 238 720 253.3C780 268.7 840 296.3 870 310.2L900 324L900 451L870 451C840 451 780 451 720 451C660 451 600 451 540 451C480 451 420 451 360 451C300 451 240 451 180 451C120 451 60 451 30 451L0 451Z"/><path fill="#e1492a" d="M0 309L30 319.5C60 330 120 351 180 347C240 343 300 314 360 309C420 304 480 323 540 331.2C600 339.3 660 336.7 720 336C780 335.3 840 336.7 870 337.3L900 338L900 451L870 451C840 451 780 451 720 451C660 451 600 451 540 451C480 451 420 451 360 451C300 451 240 451 180 451C120 451 60 451 30 451L0 451Z"/><path fill="#e95228" d="M0 343L30 342C60 341 120 339 180 348.7C240 358.3 300 379.7 360 381.5C420 383.3 480 365.7 540 359.8C600 354 660 360 720 356.3C780 352.7 840 339.3 870 332.7L900 326L900 451L870 451C840 451 780 451 720 451C660 451 600 451 540 451C480 451 420 451 360 451C300 451 240 451 180 451C120 451 60 451 30 451L0 451Z"/><path fill="#f05a26" d="M0 385L30 389.5C60 394 120 403 180 402C240 401 300 390 360 393.2C420 396.3 480 413.7 540 417.3C600 421 660 411 720 410.8C780 410.7 840 420.3 870 425.2L900 430L900 451L870 451C840 451 780 451 720 451C660 451 600 451 540 451C480 451 420 451 360 451C300 451 240 451 180 451C120 451 60 451 30 451L0 451Z"/></svg>