<svg xmlns="http://www.w3.org/2000/svg" xmlns:xlink="http://www.w3.org/1999/xlink" id="visual" width="900" height="600" version="1.1" viewBox="0 0 900 600"><path fill="#c1272d" d="M0 421L15 415.3C30 409.7 60 398.3 90 397.2C120 396 150 405 180 409C210 413 240 412 270 408.2C300 404.3 330 397.7 360 397.5C390 397.3 420 403.7 450 407.7C480 411.7 510 413.3 540 411.8C570 410.3 600 405.7 630 406.7C660 407.7 690 414.3 720 424.3C750 434.3 780 447.7 810 449C840 450.3 870 439.7 885 434.3L900 429L900 601L885 601C870 601 840 601 810 601C780 601 750 601 720 601C690 601 660 601 630 601C600 601 570 601 540 601C510 601 480 601 450 601C420 601 390 601 360 601C330 601 300 601 270 601C240 601 210 601 180 601C150 601 120 601 90 601C60 601 30 601 15 601L0 601Z"/><path fill="#d63c2b" d="M0 474L15 470.8C30 467.7 60 461.3 90 460.3C120 459.3 150 463.7 180 461.7C210 459.7 240 451.3 270 451.5C300 451.7 330 460.3 360 462.5C390 464.7 420 460.3 450 458.8C480 457.3 510 458.7 540 457.8C570 457 600 454 630 454.2C660 454.3 690 457.7 720 451.8C750 446 780 431 810 433.2C840 435.3 870 454.7 885 464.3L900 474L900 601L885 601C870 601 840 601 810 601C780 601 750 601 720 601C690 601 660 601 630 601C600 601 570 601 540 601C510 601 480 601 450 601C420 601 390 601 360 601C330 601 300 601 270 601C240 601 210 601 180 601C150 601 120 601 90 601C60 601 30 601 15 601L0 601Z"/><path fill="#ea5126" d="M0 494L15 486C30 478 60 462 90 453.3C120 444.7 150 443.3 180 451.5C210 459.7 240 477.3 270 483.5C300 489.7 330 484.3 360 483.5C390 482.7 420 486.3 450 489.3C480 492.3 510 494.7 540 491.8C570 489 600 481 630 474.3C660 467.7 690 462.3 720 460C750 457.7 780 458.3 810 463C840 467.7 870 476.3 885 480.7L900 485L900 601L885 601C870 601 840 601 810 601C780 601 750 601 720 601C690 601 660 601 630 601C600 601 570 601 540 601C510 601 480 601 450 601C420 601 390 601 360 601C330 601 300 601 270 601C240 601 210 601 180 601C150 601 120 601 90 601C60 601 30 601 15 601L0 601Z"/><path fill="#f15a24" d="M0 497L15 499C30 501 60 505 90 504.2C120 503.3 150 497.7 180 497.8C210 498 240 504 270 503.3C300 502.7 330 495.3 360 488.5C390 481.7 420 475.3 450 474C480 472.7 510 476.3 540 485C570 493.7 600 507.3 630 508.8C660 510.3 690 499.7 720 493.2C750 486.7 780 484.3 810 485.7C840 487 870 492 885 494.5L900 497L900 601L885 601C870 601 840 601 810 601C780 601 750 601 720 601C690 601 660 601 630 601C600 601 570 601 540 601C510 601 480 601 450 601C420 601 390 601 360 601C330 601 300 601 270 601C240 601 210 601 180 601C150 601 120 601 90 601C60 601 30 601 15 601L0 601Z"/><path fill="#ea5126" d="M0 508L15 506.8C30 505.7 60 503.3 90 504.5C120 505.7 150 510.3 180 512.2C210 514 240 513 270 518.2C300 523.3 330 534.7 360 538.8C390 543 420 540 450 540C480 540 510 543 540 539.7C570 536.3 600 526.7 630 526.3C660 526 690 535 720 537.8C750 540.7 780 537.3 810 536.2C840 535 870 536 885 536.5L900 537L900 601L885 601C870 601 840 601 810 601C780 601 750 601 720 601C690 601 660 601 630 601C600 601 570 601 540 601C510 601 480 601 450 601C420 601 390 601 360 601C330 601 300 601 270 601C240 601 210 601 180 601C150 601 120 601 90 601C60 601 30 601 15 601L0 601Z"/><path fill="#d63c2b" d="M0 545L15 543.7C30 542.3 60 539.7 90 538.3C120 537 150 537 180 539.8C210 542.7 240 548.3 270 551.7C300 555 330 556 360 551C390 546 420 535 450 531C480 527 510 530 540 536.7C570 543.3 600 553.7 630 556.2C660 558.7 690 553.3 720 549C750 544.7 780 541.3 810 540.2C840 539 870 540 885 540.5L900 541L900 601L885 601C870 601 840 601 810 601C780 601 750 601 720 601C690 601 660 601 630 601C600 601 570 601 540 601C510 601 480 601 450 601C420 601 390 601 360 601C330 601 300 601 270 601C240 601 210 601 180 601C150 601 120 601 90 601C60 601 30 601 15 601L0 601Z"/><path fill="#c1272d" d="M0 561L15 564.3C30 567.7 60 574.3 90 575.3C120 576.3 150 571.7 180 570C210 568.3 240 569.7 270 573C300 576.3 330 581.7 360 581.8C390 582 420 577 450 575.5C480 574 510 576 540 576.8C570 577.7 600 577.3 630 573.2C660 569 690 561 720 558.3C750 555.7 780 558.3 810 559.8C840 561.3 870 561.7 885 561.8L900 562L900 601L885 601C870 601 840 601 810 601C780 601 750 601 720 601C690 601 660 601 630 601C600 601 570 601 540 601C510 601 480 601 450 601C420 601 390 601 360 601C330 601 300 601 270 601C240 601 210 601 180 601C150 601 120 601 90 601C60 601 30 601 15 601L0 601Z"/></svg>