<svg id="visual" viewBox="0 0 900 600" width="900" height="600" xmlns="http://www.w3.org/2000/svg" xmlns:xlink="http://www.w3.org/1999/xlink" version="1.1"><path d="M0 61L10.7 59C21.3 57 42.7 53 64.2 51C85.7 49 107.3 49 128.8 50C150.3 51 171.7 53 193 56C214.3 59 235.7 63 257 64C278.3 65 299.7 63 321.2 60C342.7 57 364.3 53 385.8 56C407.3 59 428.7 69 450 71C471.3 73 492.7 67 514.2 62C535.7 57 557.3 53 578.8 54C600.3 55 621.7 61 643 64C664.3 67 685.7 67 707 68C728.3 69 749.7 71 771.2 69C792.7 67 814.3 61 835.8 57C857.3 53 878.7 51 889.3 50L900 49L900 0L889.3 0C878.7 0 857.3 0 835.8 0C814.3 0 792.7 0 771.2 0C749.7 0 728.3 0 707 0C685.7 0 664.3 0 643 0C621.7 0 600.3 0 578.8 0C557.3 0 535.7 0 514.2 0C492.7 0 471.3 0 450 0C428.7 0 407.3 0 385.8 0C364.3 0 342.7 0 321.2 0C299.7 0 278.3 0 257 0C235.7 0 214.3 0 193 0C171.7 0 150.3 0 128.8 0C107.3 0 85.7 0 64.2 0C42.7 0 21.3 0 10.7 0L0 0Z" fill="#c1272d"></path><path d="M0 85L10.7 83C21.3 81 42.7 77 64.2 76C85.7 75 107.3 77 128.8 77C150.3 77 171.7 75 193 77C214.3 79 235.7 85 257 87C278.3 89 299.7 87 321.2 85C342.7 83 364.3 81 385.8 83C407.3 85 428.7 91 450 92C471.3 93 492.7 89 514.2 85C535.7 81 557.3 77 578.8 78C600.3 79 621.7 85 643 88C664.3 91 685.7 91 707 91C728.3 91 749.7 91 771.2 89C792.7 87 814.3 83 835.8 81C857.3 79 878.7 79 889.3 79L900 79L900 47L889.3 48C878.7 49 857.3 51 835.8 55C814.3 59 792.7 65 771.2 67C749.7 69 728.3 67 707 66C685.7 65 664.3 65 643 62C621.7 59 600.3 53 578.8 52C557.3 51 535.7 55 514.2 60C492.7 65 471.3 71 450 69C428.7 67 407.3 57 385.8 54C364.3 51 342.7 55 321.2 58C299.7 61 278.3 63 257 62C235.7 61 214.3 57 193 54C171.7 51 150.3 49 128.8 48C107.3 47 85.7 47 64.2 49C42.7 51 21.3 55 10.7 57L0 59Z" fill="#c62c2d"></path><path d="M0 157L10.7 159C21.3 161 42.7 165 64.2 162C85.7 159 107.3 149 128.8 145C150.3 141 171.7 143 193 146C214.3 149 235.7 153 257 154C278.3 155 299.7 153 321.2 149C342.7 145 364.3 139 385.8 141C407.3 143 428.7 153 450 160C471.3 167 492.7 171 514.2 170C535.7 169 557.3 163 578.8 157C600.3 151 621.7 145 643 149C664.3 153 685.7 167 707 168C728.3 169 749.7 157 771.2 153C792.7 149 814.3 153 835.8 154C857.3 155 878.7 153 889.3 152L900 151L900 77L889.3 77C878.7 77 857.3 77 835.8 79C814.3 81 792.7 85 771.2 87C749.7 89 728.3 89 707 89C685.7 89 664.3 89 643 86C621.7 83 600.3 77 578.8 76C557.3 75 535.7 79 514.2 83C492.7 87 471.3 91 450 90C428.7 89 407.3 83 385.8 81C364.3 79 342.7 81 321.2 83C299.7 85 278.3 87 257 85C235.7 83 214.3 77 193 75C171.7 73 150.3 75 128.8 75C107.3 75 85.7 73 64.2 74C42.7 75 21.3 79 10.7 81L0 83Z" fill="#cb312c"></path><path d="M0 193L10.7 194C21.3 195 42.7 197 64.2 196C85.7 195 107.3 191 128.8 190C150.3 189 171.7 191 193 191C214.3 191 235.7 189 257 189C278.3 189 299.7 191 321.2 189C342.7 187 364.3 181 385.8 181C407.3 181 428.7 187 450 196C471.3 205 492.7 217 514.2 219C535.7 221 557.3 213 578.8 205C600.3 197 621.7 189 643 191C664.3 193 685.7 205 707 206C728.3 207 749.7 197 771.2 194C792.7 191 814.3 195 835.8 196C857.3 197 878.7 195 889.3 194L900 193L900 149L889.3 150C878.7 151 857.3 153 835.8 152C814.3 151 792.7 147 771.2 151C749.7 155 728.3 167 707 166C685.7 165 664.3 151 643 147C621.7 143 600.3 149 578.8 155C557.3 161 535.7 167 514.2 168C492.7 169 471.3 165 450 158C428.7 151 407.3 141 385.8 139C364.3 137 342.7 143 321.2 147C299.7 151 278.3 153 257 152C235.7 151 214.3 147 193 144C171.7 141 150.3 139 128.8 143C107.3 147 85.7 157 64.2 160C42.7 163 21.3 159 10.7 157L0 155Z" fill="#d0362c"></path><path d="M0 223L10.7 224C21.3 225 42.7 227 64.2 224C85.7 221 107.3 213 128.8 212C150.3 211 171.7 217 193 217C214.3 217 235.7 211 257 209C278.3 207 299.7 209 321.2 209C342.7 209 364.3 207 385.8 209C407.3 211 428.7 217 450 224C471.3 231 492.7 239 514.2 241C535.7 243 557.3 239 578.8 232C600.3 225 621.7 215 643 215C664.3 215 685.7 225 707 227C728.3 229 749.7 223 771.2 221C792.7 219 814.3 221 835.8 221C857.3 221 878.7 219 889.3 218L900 217L900 191L889.3 192C878.7 193 857.3 195 835.8 194C814.3 193 792.7 189 771.2 192C749.7 195 728.3 205 707 204C685.7 203 664.3 191 643 189C621.7 187 600.3 195 578.8 203C557.3 211 535.7 219 514.2 217C492.7 215 471.3 203 450 194C428.7 185 407.3 179 385.8 179C364.3 179 342.7 185 321.2 187C299.7 189 278.3 187 257 187C235.7 187 214.3 189 193 189C171.7 189 150.3 187 128.8 188C107.3 189 85.7 193 64.2 194C42.7 195 21.3 193 10.7 192L0 191Z" fill="#d53b2b"></path><path d="M0 253L10.7 256C21.3 259 42.7 265 64.2 264C85.7 263 107.3 255 128.8 252C150.3 249 171.7 251 193 249C214.3 247 235.7 241 257 241C278.3 241 299.7 247 321.2 249C342.7 251 364.3 249 385.8 248C407.3 247 428.7 247 450 251C471.3 255 492.7 263 514.2 268C535.7 273 557.3 275 578.8 269C600.3 263 621.7 249 643 248C664.3 247 685.7 259 707 260C728.3 261 749.7 251 771.2 248C792.7 245 814.3 249 835.8 252C857.3 255 878.7 257 889.3 258L900 259L900 215L889.3 216C878.7 217 857.3 219 835.8 219C814.3 219 792.7 217 771.2 219C749.7 221 728.3 227 707 225C685.7 223 664.3 213 643 213C621.7 213 600.3 223 578.8 230C557.3 237 535.7 241 514.2 239C492.7 237 471.3 229 450 222C428.7 215 407.3 209 385.8 207C364.3 205 342.7 207 321.2 207C299.7 207 278.3 205 257 207C235.7 209 214.3 215 193 215C171.7 215 150.3 209 128.8 210C107.3 211 85.7 219 64.2 222C42.7 225 21.3 223 10.7 222L0 221Z" fill="#da402a"></path><path d="M0 349L10.7 350C21.3 351 42.7 353 64.2 356C85.7 359 107.3 363 128.8 363C150.3 363 171.7 359 193 359C214.3 359 235.7 363 257 369C278.3 375 299.7 383 321.2 381C342.7 379 364.3 367 385.8 359C407.3 351 428.7 347 450 346C471.3 345 492.7 347 514.2 351C535.7 355 557.3 361 578.8 367C600.3 373 621.7 379 643 379C664.3 379 685.7 373 707 367C728.3 361 749.7 355 771.2 349C792.7 343 814.3 337 835.8 344C857.3 351 878.7 371 889.3 381L900 391L900 257L889.3 256C878.7 255 857.3 253 835.8 250C814.3 247 792.7 243 771.2 246C749.7 249 728.3 259 707 258C685.7 257 664.3 245 643 246C621.7 247 600.3 261 578.8 267C557.3 273 535.7 271 514.2 266C492.7 261 471.3 253 450 249C428.7 245 407.3 245 385.8 246C364.3 247 342.7 249 321.2 247C299.7 245 278.3 239 257 239C235.7 239 214.3 245 193 247C171.7 249 150.3 247 128.8 250C107.3 253 85.7 261 64.2 262C42.7 263 21.3 257 10.7 254L0 251Z" fill="#df4529"></path><path d="M0 379L10.7 380C21.3 381 42.7 383 64.2 386C85.7 389 107.3 393 128.8 394C150.3 395 171.7 393 193 392C214.3 391 235.7 391 257 396C278.3 401 299.7 411 321.2 409C342.7 407 364.3 393 385.8 385C407.3 377 428.7 375 450 374C471.3 373 492.7 373 514.2 377C535.7 381 557.3 389 578.8 395C600.3 401 621.7 405 643 407C664.3 409 685.7 409 707 406C728.3 403 749.7 397 771.2 391C792.7 385 814.3 379 835.8 385C857.3 391 878.7 409 889.3 418L900 427L900 389L889.3 379C878.7 369 857.3 349 835.8 342C814.3 335 792.7 341 771.2 347C749.7 353 728.3 359 707 365C685.7 371 664.3 377 643 377C621.7 377 600.3 371 578.8 365C557.3 359 535.7 353 514.2 349C492.7 345 471.3 343 450 344C428.7 345 407.3 349 385.8 357C364.3 365 342.7 377 321.2 379C299.7 381 278.3 373 257 367C235.7 361 214.3 357 193 357C171.7 357 150.3 361 128.8 361C107.3 361 85.7 357 64.2 354C42.7 351 21.3 349 10.7 348L0 347Z" fill="#e34a28"></path><path d="M0 415L10.7 414C21.3 413 42.7 411 64.2 413C85.7 415 107.3 421 128.8 424C150.3 427 171.7 427 193 426C214.3 425 235.7 423 257 427C278.3 431 299.7 441 321.2 437C342.7 433 364.3 415 385.8 407C407.3 399 428.7 401 450 403C471.3 405 492.7 407 514.2 411C535.7 415 557.3 421 578.8 427C600.3 433 621.7 439 643 440C664.3 441 685.7 437 707 432C728.3 427 749.7 421 771.2 415C792.7 409 814.3 403 835.8 411C857.3 419 878.7 441 889.3 452L900 463L900 425L889.3 416C878.7 407 857.3 389 835.8 383C814.3 377 792.7 383 771.2 389C749.7 395 728.3 401 707 404C685.7 407 664.3 407 643 405C621.7 403 600.3 399 578.8 393C557.3 387 535.7 379 514.2 375C492.7 371 471.3 371 450 372C428.7 373 407.3 375 385.8 383C364.3 391 342.7 405 321.2 407C299.7 409 278.3 399 257 394C235.7 389 214.3 389 193 390C171.7 391 150.3 393 128.8 392C107.3 391 85.7 387 64.2 384C42.7 381 21.3 379 10.7 378L0 377Z" fill="#e85027"></path><path d="M0 541L10.7 543C21.3 545 42.7 549 64.2 552C85.7 555 107.3 557 128.8 557C150.3 557 171.7 555 193 555C214.3 555 235.7 557 257 555C278.3 553 299.7 547 321.2 544C342.7 541 364.3 541 385.8 543C407.3 545 428.7 549 450 550C471.3 551 492.7 549 514.2 548C535.7 547 557.3 547 578.8 547C600.3 547 621.7 547 643 547C664.3 547 685.7 547 707 549C728.3 551 749.7 555 771.2 556C792.7 557 814.3 555 835.8 555C857.3 555 878.7 557 889.3 558L900 559L900 461L889.3 450C878.7 439 857.3 417 835.8 409C814.3 401 792.7 407 771.2 413C749.7 419 728.3 425 707 430C685.7 435 664.3 439 643 438C621.7 437 600.3 431 578.8 425C557.3 419 535.7 413 514.2 409C492.7 405 471.3 403 450 401C428.7 399 407.3 397 385.8 405C364.3 413 342.7 431 321.2 435C299.7 439 278.3 429 257 425C235.7 421 214.3 423 193 424C171.7 425 150.3 425 128.8 422C107.3 419 85.7 413 64.2 411C42.7 409 21.3 411 10.7 412L0 413Z" fill="#ed5526"></path><path d="M0 601L10.7 601C21.3 601 42.7 601 64.2 601C85.7 601 107.3 601 128.8 601C150.3 601 171.7 601 193 601C214.3 601 235.7 601 257 601C278.3 601 299.7 601 321.2 601C342.7 601 364.3 601 385.8 601C407.3 601 428.7 601 450 601C471.3 601 492.7 601 514.2 601C535.7 601 557.3 601 578.8 601C600.3 601 621.7 601 643 601C664.3 601 685.7 601 707 601C728.3 601 749.7 601 771.2 601C792.7 601 814.3 601 835.8 601C857.3 601 878.7 601 889.3 601L900 601L900 557L889.3 556C878.7 555 857.3 553 835.8 553C814.3 553 792.7 555 771.2 554C749.7 553 728.3 549 707 547C685.7 545 664.3 545 643 545C621.7 545 600.3 545 578.8 545C557.3 545 535.7 545 514.2 546C492.7 547 471.3 549 450 548C428.7 547 407.3 543 385.8 541C364.3 539 342.7 539 321.2 542C299.7 545 278.3 551 257 553C235.7 555 214.3 553 193 553C171.7 553 150.3 555 128.8 555C107.3 555 85.7 553 64.2 550C42.7 547 21.3 543 10.7 541L0 539Z" fill="#f15a24"></path></svg>