<svg xmlns="http://www.w3.org/2000/svg" xmlns:xlink="http://www.w3.org/1999/xlink" id="visual" width="900" height="450" version="1.1" viewBox="0 0 900 450"><rect width="900" height="450" x="0" y="0" fill="#242424"/><path fill="#c0272d" d="M0 403L30 399C60 395 120 387 180 354C240 321 300 263 360 259.8C420 256.7 480 308.3 540 311.8C600 315.3 660 270.7 720 269.7C780 268.7 840 311.3 870 332.7L900 354L900 0L870 0C840 0 780 0 720 0C660 0 600 0 540 0C480 0 420 0 360 0C300 0 240 0 180 0C120 0 60 0 30 0L0 0Z"/><path fill="#c9302d" d="M0 250L30 270.7C60 291.3 120 332.7 180 352.7C240 372.7 300 371.3 360 360.7C420 350 480 330 540 326.2C600 322.3 660 334.7 720 342.5C780 350.3 840 353.7 870 355.3L900 357L900 0L870 0C840 0 780 0 720 0C660 0 600 0 540 0C480 0 420 0 360 0C300 0 240 0 180 0C120 0 60 0 30 0L0 0Z"/><path fill="#d1382c" d="M0 177L30 170.5C60 164 120 151 180 162.5C240 174 300 210 360 229.5C420 249 480 252 540 261.8C600 271.7 660 288.3 720 272C780 255.7 840 206.3 870 181.7L900 157L900 0L870 0C840 0 780 0 720 0C660 0 600 0 540 0C480 0 420 0 360 0C300 0 240 0 180 0C120 0 60 0 30 0L0 0Z"/><path fill="#d9412b" d="M0 246L30 226.2C60 206.3 120 166.7 180 158.7C240 150.7 300 174.3 360 177.8C420 181.3 480 164.7 540 164.2C600 163.7 660 179.3 720 172C780 164.7 840 134.3 870 119.2L900 104L900 0L870 0C840 0 780 0 720 0C660 0 600 0 540 0C480 0 420 0 360 0C300 0 240 0 180 0C120 0 60 0 30 0L0 0Z"/><path fill="#e1492a" d="M0 133L30 133.2C60 133.3 120 133.7 180 137.8C240 142 300 150 360 161.7C420 173.3 480 188.7 540 183.2C600 177.7 660 151.3 720 139.2C780 127 840 129 870 130L900 131L900 0L870 0C840 0 780 0 720 0C660 0 600 0 540 0C480 0 420 0 360 0C300 0 240 0 180 0C120 0 60 0 30 0L0 0Z"/><path fill="#e95228" d="M0 133L30 132C60 131 120 129 180 115.8C240 102.7 300 78.3 360 80.3C420 82.3 480 110.7 540 129.3C600 148 660 157 720 153.3C780 149.7 840 133.3 870 125.2L900 117L900 0L870 0C840 0 780 0 720 0C660 0 600 0 540 0C480 0 420 0 360 0C300 0 240 0 180 0C120 0 60 0 30 0L0 0Z"/><path fill="#f05a26" d="M0 49L30 57.2C60 65.3 120 81.7 180 79.2C240 76.7 300 55.3 360 55.8C420 56.3 480 78.7 540 84.5C600 90.3 660 79.7 720 71.8C780 64 840 59 870 56.5L900 54L900 0L870 0C840 0 780 0 720 0C660 0 600 0 540 0C480 0 420 0 360 0C300 0 240 0 180 0C120 0 60 0 30 0L0 0Z"/></svg>