<svg id="visual" viewBox="0 0 900 600" width="900" height="600" xmlns="http://www.w3.org/2000/svg" xmlns:xlink="http://www.w3.org/1999/xlink" version="1.1"><path d="M0 288L21.5 288.5C43 289 86 290 128.8 304.3C171.7 318.7 214.3 346.3 257.2 354.7C300 363 343 352 385.8 357C428.7 362 471.3 383 514.2 373.5C557 364 600 324 642.8 322.7C685.7 321.3 728.3 358.7 771.2 371.7C814 384.7 857 373.3 878.5 367.7L900 362L900 0L878.5 0C857 0 814 0 771.2 0C728.3 0 685.7 0 642.8 0C600 0 557 0 514.2 0C471.3 0 428.7 0 385.8 0C343 0 300 0 257.2 0C214.3 0 171.7 0 128.8 0C86 0 43 0 21.5 0L0 0Z" fill="#c1272d"></path><path d="M0 360L21.5 358.3C43 356.7 86 353.3 128.8 332.2C171.7 311 214.3 272 257.2 259.2C300 246.3 343 259.7 385.8 281.3C428.7 303 471.3 333 514.2 329.8C557 326.7 600 290.3 642.8 289C685.7 287.7 728.3 321.3 771.2 324.7C814 328 857 301 878.5 287.5L900 274L900 0L878.5 0C857 0 814 0 771.2 0C728.3 0 685.7 0 642.8 0C600 0 557 0 514.2 0C471.3 0 428.7 0 385.8 0C343 0 300 0 257.2 0C214.3 0 171.7 0 128.8 0C86 0 43 0 21.5 0L0 0Z" fill="#ca2f2c"></path><path d="M0 263L21.5 256.3C43 249.7 86 236.3 128.8 231.7C171.7 227 214.3 231 257.2 237.7C300 244.3 343 253.7 385.8 264.3C428.7 275 471.3 287 514.2 290.8C557 294.7 600 290.3 642.8 272.3C685.7 254.3 728.3 222.7 771.2 223C814 223.3 857 255.7 878.5 271.8L900 288L900 0L878.5 0C857 0 814 0 771.2 0C728.3 0 685.7 0 642.8 0C600 0 557 0 514.2 0C471.3 0 428.7 0 385.8 0C343 0 300 0 257.2 0C214.3 0 171.7 0 128.8 0C86 0 43 0 21.5 0L0 0Z" fill="#d2382b"></path><path d="M0 258L21.5 245.5C43 233 86 208 128.8 194C171.7 180 214.3 177 257.2 185.2C300 193.3 343 212.7 385.8 214.5C428.7 216.3 471.3 200.7 514.2 189C557 177.3 600 169.7 642.8 168C685.7 166.3 728.3 170.7 771.2 186C814 201.3 857 227.7 878.5 240.8L900 254L900 0L878.5 0C857 0 814 0 771.2 0C728.3 0 685.7 0 642.8 0C600 0 557 0 514.2 0C471.3 0 428.7 0 385.8 0C343 0 300 0 257.2 0C214.3 0 171.7 0 128.8 0C86 0 43 0 21.5 0L0 0Z" fill="#da402a"></path><path d="M0 183L21.5 182.2C43 181.3 86 179.7 128.8 170.8C171.7 162 214.3 146 257.2 141.2C300 136.3 343 142.7 385.8 145.3C428.7 148 471.3 147 514.2 148.5C557 150 600 154 642.8 150.2C685.7 146.3 728.3 134.7 771.2 126.7C814 118.7 857 114.3 878.5 112.2L900 110L900 0L878.5 0C857 0 814 0 771.2 0C728.3 0 685.7 0 642.8 0C600 0 557 0 514.2 0C471.3 0 428.7 0 385.8 0C343 0 300 0 257.2 0C214.3 0 171.7 0 128.8 0C86 0 43 0 21.5 0L0 0Z" fill="#e24928"></path><path d="M0 129L21.5 128.5C43 128 86 127 128.8 123.8C171.7 120.7 214.3 115.3 257.2 107.5C300 99.7 343 89.3 385.8 89.5C428.7 89.7 471.3 100.3 514.2 106C557 111.7 600 112.3 642.8 113.3C685.7 114.3 728.3 115.7 771.2 121.3C814 127 857 137 878.5 142L900 147L900 0L878.5 0C857 0 814 0 771.2 0C728.3 0 685.7 0 642.8 0C600 0 557 0 514.2 0C471.3 0 428.7 0 385.8 0C343 0 300 0 257.2 0C214.3 0 171.7 0 128.8 0C86 0 43 0 21.5 0L0 0Z" fill="#ea5126"></path><path d="M0 59L21.5 56.2C43 53.3 86 47.7 128.8 45.3C171.7 43 214.3 44 257.2 48.5C300 53 343 61 385.8 61.2C428.7 61.3 471.3 53.7 514.2 54.8C557 56 600 66 642.8 63.7C685.7 61.3 728.3 46.7 771.2 48.7C814 50.7 857 69.3 878.5 78.7L900 88L900 0L878.5 0C857 0 814 0 771.2 0C728.3 0 685.7 0 642.8 0C600 0 557 0 514.2 0C471.3 0 428.7 0 385.8 0C343 0 300 0 257.2 0C214.3 0 171.7 0 128.8 0C86 0 43 0 21.5 0L0 0Z" fill="#f15a24"></path></svg>