<svg xmlns="http://www.w3.org/2000/svg" width="790.667" height="790.667" preserveAspectRatio="xMidYMid meet" version="1.0" viewBox="0 0 593 593"><metadata>Created by potrace 1.14, written by Peter Selinger 2001-2017</metadata><g fill="#000" stroke="none"><path d="M3144 5216 c-140 -30 -228 -56 -379 -116 -116 -46 -150 -61 -370 -165 -269 -127 -507 -219 -644 -250 -51 -12 -223 -44 -261 -49 -146 -20 -394 -26 -495 -12 -27 3 -68 8 -90 11 -22 3 -51 7 -65 10 -14 3 -37 8 -51 10 -41 8 -227 69 -299 100 -36 15 -150 69 -253 121 -104 52 -185 89 -181 82 29 -49 110 -146 182 -217 196 -192 452 -341 747 -432 72 -22 254 -65 310 -73 23 -4 52 -8 65 -11 67 -13 193 -20 365 -20 166 0 369 10 385 20 3 2 34 6 70 10 36 4 72 8 80 10 8 1 40 6 71 9 31 4 65 8 75 10 11 2 46 7 79 10 33 4 83 10 110 13 66 10 455 10 524 0 78 -10 245 -54 304 -79 168 -72 277 -154 277 -209 0 -54 -100 -128 -365 -269 -215 -114 -307 -183 -389 -290 -107 -140 -159 -299 -157 -475 3 -167 49 -291 204 -547 94 -155 143 -253 172 -343 19 -58 23 -88 21 -175 -2 -98 -6 -114 -50 -235 -74 -199 -77 -213 -81 -325 -4 -121 13 -201 64 -305 101 -205 318 -336 546 -330 168 4 269 64 342 202 17 32 133 297 256 588 124 292 253 595 287 675 81 191 239 512 335 680 128 224 216 424 246 558 42 188 28 387 -38 535 -14 31 -24 59 -22 61 5 5 352 216 629 382 107 64 203 123 214 130 16 11 11 15 -49 33 -37 12 -77 23 -89 25 -11 3 -46 10 -76 16 -199 40 -443 31 -690 -25 -37 -8 -209 -69 -245 -87 -37 -17 -41 -18 -50 -2 -29 49 -114 173 -135 199 -227 272 -551 469 -880 534 -30 6 -66 14 -80 17 -14 4 -101 8 -195 10 -148 2 -185 0 -281 -20z" transform="translate(0.000000,593.000000) scale(0.100000,-0.100000)"/><path d="M4 4831 c25 -207 127 -456 285 -690 58 -88 220 -261 281 -302 19 -13 37 -26 40 -29 13 -17 185 -111 273 -149 87 -38 215 -86 257 -97 8 -2 60 -17 115 -33 106 -30 320 -77 401 -86 26 -4 50 -8 53 -10 3 -2 31 -6 61 -10 30 -3 66 -8 80 -10 14 -2 50 -6 80 -10 164 -18 246 -30 349 -50 129 -25 256 -86 333 -159 33 -32 38 -32 38 -4 0 65 80 242 151 334 45 58 164 172 231 221 89 65 255 154 450 241 21 10 38 20 38 23 0 18 -252 82 -370 94 -30 3 -66 8 -79 11 -27 6 -376 6 -431 0 -19 -2 -75 -7 -125 -11 -49 -4 -103 -9 -120 -10 -37 -4 -142 -15 -175 -20 -14 -2 -56 -7 -95 -10 -38 -4 -83 -9 -100 -11 -156 -19 -561 -26 -680 -12 -182 22 -310 52 -449 107 -333 133 -603 345 -846 666 l-53 70 7 -54z" transform="translate(0.000000,593.000000) scale(0.100000,-0.100000)"/><path d="M139 4195 c-2 -26 -2 -23 5 -69 62 -395 400 -899 803 -1198 144 -106 528 -314 778 -420 320 -137 541 -199 795 -224 25 -2 56 -6 70 -9 14 -3 41 -7 60 -10 110 -18 224 -60 306 -115 l72 -47 -14 39 c-19 53 -78 167 -137 262 -27 44 -61 100 -75 125 -14 25 -34 61 -44 79 -54 98 -95 225 -104 332 -5 56 -10 69 -37 96 -101 97 -276 165 -487 188 -525 59 -836 127 -1158 253 -387 151 -648 368 -789 653 -25 49 -43 77 -44 65z" transform="translate(0.000000,593.000000) scale(0.100000,-0.100000)"/></g></svg>